<?xml version="1.0" encoding="utf-8"?>
<!-- Generator: Adobe Illustrator 27.3.1, SVG Export Plug-In . SVG Version: 6.00 Build 0)  -->
<svg version="1.1" id="Calque_1" xmlns="http://www.w3.org/2000/svg" xmlns:xlink="http://www.w3.org/1999/xlink" x="0px" y="0px"
	 viewBox="0 0 595.3 841.9" style="enable-background:new 0 0 595.3 841.9;" xml:space="preserve"
	 width="100" height="100">
<style type="text/css">
	.st0{display:none;}
	.st1{display:inline;fill-rule:evenodd;clip-rule:evenodd;fill:#141313;}
	.st2{fill-rule:evenodd;clip-rule:evenodd;fill:url(#SVGID_1_);}
	.st3{fill-rule:evenodd;clip-rule:evenodd;fill:url(#SVGID_00000002371315164747709560000017769901719536117903_);}
	.st4{fill-rule:evenodd;clip-rule:evenodd;fill:url(#SVGID_00000093170852747810457550000011442471143996470917_);}
	.st5{fill-rule:evenodd;clip-rule:evenodd;fill:url(#SVGID_00000045589081524604360470000012166109325939874213_);}
	.st6{fill-rule:evenodd;clip-rule:evenodd;fill:url(#SVGID_00000029025729199627350230000018125980155739007412_);}
	.st7{fill-rule:evenodd;clip-rule:evenodd;fill:url(#SVGID_00000047768035355327617090000013215809838124444820_);}
	.st8{fill-rule:evenodd;clip-rule:evenodd;fill:url(#SVGID_00000018937982642283721200000010999698604104062625_);}
	.st9{fill-rule:evenodd;clip-rule:evenodd;fill:url(#SVGID_00000111176790081665231280000012796522218091941289_);}
	.st10{fill-rule:evenodd;clip-rule:evenodd;fill:url(#SVGID_00000066508429086626935290000015344459058849837475_);}
	.st11{fill-rule:evenodd;clip-rule:evenodd;fill:url(#SVGID_00000177441884876677229670000000556397646669957558_);}
	.st12{fill-rule:evenodd;clip-rule:evenodd;fill:url(#SVGID_00000072263874709846373460000004734730383825910921_);}
	.st13{fill-rule:evenodd;clip-rule:evenodd;fill:url(#SVGID_00000106857364456409466320000000658750102005630085_);}
	.st14{fill-rule:evenodd;clip-rule:evenodd;fill:url(#SVGID_00000168110302410128381250000014626633535203661719_);}
	.st15{fill-rule:evenodd;clip-rule:evenodd;fill:url(#SVGID_00000039113942946619612710000015807579572813686680_);}
	.st16{fill-rule:evenodd;clip-rule:evenodd;fill:url(#SVGID_00000113311493530221588740000000343607079062876840_);}
	.st17{fill-rule:evenodd;clip-rule:evenodd;fill:url(#SVGID_00000119804087827844473930000007706755166811546498_);}
	.st18{fill-rule:evenodd;clip-rule:evenodd;fill:url(#SVGID_00000110430100010355613190000011475685342349469063_);}
	.st19{opacity:0.1;fill-rule:evenodd;clip-rule:evenodd;fill:#2C4568;}
	.st20{opacity:0.28;fill-rule:evenodd;clip-rule:evenodd;fill:#11142D;}
	.st21{fill-rule:evenodd;clip-rule:evenodd;fill:url(#SVGID_00000093140268615703086090000003466205854769708679_);}
	.st22{filter:url(#Adobe_OpacityMaskFilter);}
	.st23{fill:url(#SVGID_00000038414470794868811680000011883442425291813772_);}
	.st24{mask:url(#SVGID_00000153693113250528930510000014063778599799318410_);fill-rule:evenodd;clip-rule:evenodd;fill:#2A3781;}
	.st25{filter:url(#Adobe_OpacityMaskFilter_00000176015163552170515710000007654631541297280436_);}
	.st26{fill:url(#SVGID_00000162317027568337237850000014196821407012372894_);}
	.st27{mask:url(#SVGID_00000129166950583556381490000003873830695775105720_);fill-rule:evenodd;clip-rule:evenodd;fill:#FFFFFF;}
</style>
<g class="st0">
	<polygon class="st1" points="-16.2,-16.5 613.3,-16.5 613.3,858.9 -16.2,858.9 -16.2,-16.5 	"/>
</g>
<g>
	<g>
		<g>
			<g>
				<linearGradient id="SVGID_1_" gradientUnits="userSpaceOnUse" x1="387.2498" y1="149.2035" x2="389.8034" y2="146.9062">
					<stop  offset="0" style="stop-color:#415EAB"/>
					<stop  offset="0.55" style="stop-color:#46C0BA"/>
					<stop  offset="1" style="stop-color:#A1D5B2"/>
				</linearGradient>
				<path class="st2" d="M383.9,147c2.4,1.3,4.8,2.6,7.2,3.9C388.7,149.6,386.3,148.3,383.9,147z"/>
				
					<linearGradient id="SVGID_00000142854809890825926210000005458220914356306837_" gradientUnits="userSpaceOnUse" x1="266.8687" y1="474.0911" x2="747.2797" y2="41.9032">
					<stop  offset="0" style="stop-color:#415EAB"/>
					<stop  offset="0.55" style="stop-color:#46C0BA"/>
					<stop  offset="1" style="stop-color:#A1D5B2"/>
				</linearGradient>
				<path style="fill-rule:evenodd;clip-rule:evenodd;fill:url(#SVGID_00000142854809890825926210000005458220914356306837_);" d="
					M411.2,163.2c0.3,2.3-220.2-71.4-219.4,92.4c-0.2,8.7,1.1,17,3.6,25.1c14.1-4.5,29.2-7,44.9-7c81.3,0,147.2,65.9,147.2,147.2
					c0,17.4-3.1,34.2-8.6,49.7c22.2,29.7,36.9,63.8,35.7,105.3c0.2,92.9-116.3,153.5-174.3,154.3c170.8,0,309.3-138.5,309.3-309.3
					C549.5,313.3,494.6,218.6,411.2,163.2z"/>
				
					<linearGradient id="SVGID_00000108271029133275003040000001427253443665360789_" gradientUnits="userSpaceOnUse" x1="367.3525" y1="139.3923" x2="370.4369" y2="136.6176">
					<stop  offset="0" style="stop-color:#415EAB"/>
					<stop  offset="0.55" style="stop-color:#46C0BA"/>
					<stop  offset="1" style="stop-color:#A1D5B2"/>
				</linearGradient>
				<path style="fill-rule:evenodd;clip-rule:evenodd;fill:url(#SVGID_00000108271029133275003040000001427253443665360789_);" d="
					M363.9,137.4c2.5,1.1,5,2.2,7.5,3.4C368.9,139.6,366.4,138.5,363.9,137.4z"/>
				
					<linearGradient id="SVGID_00000043423290932879807310000009186885586537095046_" gradientUnits="userSpaceOnUse" x1="377.3355" y1="144.1673" x2="380.6713" y2="141.1663">
					<stop  offset="0" style="stop-color:#415EAB"/>
					<stop  offset="0.55" style="stop-color:#46C0BA"/>
					<stop  offset="1" style="stop-color:#A1D5B2"/>
				</linearGradient>
				<path style="fill-rule:evenodd;clip-rule:evenodd;fill:url(#SVGID_00000043423290932879807310000009186885586537095046_);" d="
					M373.3,141.7c2.9,1.4,5.8,2.8,8.7,4.3C379.2,144.5,376.3,143.1,373.3,141.7z"/>
				
					<linearGradient id="SVGID_00000181053168696970894110000010474073336853917060_" gradientUnits="userSpaceOnUse" x1="356.9043" y1="135.0104" x2="360.8632" y2="131.449">
					<stop  offset="0" style="stop-color:#415EAB"/>
					<stop  offset="0.55" style="stop-color:#46C0BA"/>
					<stop  offset="1" style="stop-color:#A1D5B2"/>
				</linearGradient>
				<path style="fill-rule:evenodd;clip-rule:evenodd;fill:url(#SVGID_00000181053168696970894110000010474073336853917060_);" d="
					M352.8,132.8c3,1.2,6.1,2.4,9.1,3.7C358.8,135.2,355.8,134,352.8,132.8z"/>
				
					<linearGradient id="SVGID_00000049934963785305213330000000754675173584309388_" gradientUnits="userSpaceOnUse" x1="346.675" y1="130.9929" x2="350.3116" y2="127.7213">
					<stop  offset="0" style="stop-color:#415EAB"/>
					<stop  offset="0.55" style="stop-color:#46C0BA"/>
					<stop  offset="1" style="stop-color:#A1D5B2"/>
				</linearGradient>
				<path style="fill-rule:evenodd;clip-rule:evenodd;fill:url(#SVGID_00000049934963785305213330000000754675173584309388_);" d="
					M343.1,129.2c2.6,0.9,5.3,1.9,7.9,2.9C348.4,131.1,345.8,130.1,343.1,129.2z"/>
				
					<linearGradient id="SVGID_00000134968287797439547460000015279737809733803449_" gradientUnits="userSpaceOnUse" x1="244.7457" y1="112.4222" x2="251.8869" y2="105.9978">
					<stop  offset="0" style="stop-color:#415EAB"/>
					<stop  offset="0.55" style="stop-color:#46C0BA"/>
					<stop  offset="1" style="stop-color:#A1D5B2"/>
				</linearGradient>
				<path style="fill-rule:evenodd;clip-rule:evenodd;fill:url(#SVGID_00000134968287797439547460000015279737809733803449_);" d="
					M240.2,111.7c3.5,0,7,0.1,10.5,0.2C247.2,111.7,243.8,111.7,240.2,111.7z"/>
				
					<linearGradient id="SVGID_00000129166070489488411850000006343261860025981118_" gradientUnits="userSpaceOnUse" x1="396.9513" y1="154.7213" x2="399.6622" y2="152.2826">
					<stop  offset="0" style="stop-color:#415EAB"/>
					<stop  offset="0.55" style="stop-color:#46C0BA"/>
					<stop  offset="1" style="stop-color:#A1D5B2"/>
				</linearGradient>
				<path style="fill-rule:evenodd;clip-rule:evenodd;fill:url(#SVGID_00000129166070489488411850000006343261860025981118_);" d="
					M393.1,152c2.8,1.6,5.6,3.2,8.3,4.9C398.7,155.2,395.9,153.6,393.1,152z"/>
				
					<linearGradient id="SVGID_00000064323318069337181240000017731375476173710247_" gradientUnits="userSpaceOnUse" x1="406.3083" y1="160.3652" x2="408.3468" y2="158.5312">
					<stop  offset="0" style="stop-color:#415EAB"/>
					<stop  offset="0.55" style="stop-color:#46C0BA"/>
					<stop  offset="1" style="stop-color:#A1D5B2"/>
				</linearGradient>
				<path style="fill-rule:evenodd;clip-rule:evenodd;fill:url(#SVGID_00000064323318069337181240000017731375476173710247_);" d="
					M403.1,158c2.3,1.4,4.6,2.9,6.9,4.4C407.7,160.9,405.4,159.4,403.1,158z"/>
				
					<linearGradient id="SVGID_00000089559818162339883490000006283535759835219364_" gradientUnits="userSpaceOnUse" x1="335.7212" y1="127.3151" x2="340.3061" y2="123.1905">
					<stop  offset="0" style="stop-color:#415EAB"/>
					<stop  offset="0.55" style="stop-color:#46C0BA"/>
					<stop  offset="1" style="stop-color:#A1D5B2"/>
				</linearGradient>
				<path style="fill-rule:evenodd;clip-rule:evenodd;fill:url(#SVGID_00000089559818162339883490000006283535759835219364_);" d="
					M331.5,125.4c3.2,1,6.3,2,9.4,3.1C337.8,127.4,334.7,126.3,331.5,125.4z"/>
				
					<linearGradient id="SVGID_00000096043256441799332210000018151689543374173880_" gradientUnits="userSpaceOnUse" x1="280.6974" y1="114.9317" x2="286.2802" y2="109.9093">
					<stop  offset="0" style="stop-color:#415EAB"/>
					<stop  offset="0.55" style="stop-color:#46C0BA"/>
					<stop  offset="1" style="stop-color:#A1D5B2"/>
				</linearGradient>
				<path style="fill-rule:evenodd;clip-rule:evenodd;fill:url(#SVGID_00000096043256441799332210000018151689543374173880_);" d="
					M276.7,113.8c3.1,0.4,6.1,0.8,9.2,1.2C282.8,114.6,279.8,114.2,276.7,113.8z"/>
				
					<linearGradient id="SVGID_00000159431391746844654570000013231145031710029220_" gradientUnits="userSpaceOnUse" x1="268.2943" y1="113.634" x2="274.7842" y2="107.7956">
					<stop  offset="0" style="stop-color:#415EAB"/>
					<stop  offset="0.55" style="stop-color:#46C0BA"/>
					<stop  offset="1" style="stop-color:#A1D5B2"/>
				</linearGradient>
				<path style="fill-rule:evenodd;clip-rule:evenodd;fill:url(#SVGID_00000159431391746844654570000013231145031710029220_);" d="
					M263.8,112.5c3.4,0.3,6.8,0.6,10.2,1C270.7,113.1,267.3,112.8,263.8,112.5z"/>
				
					<linearGradient id="SVGID_00000173851433047732007160000001904677912821565080_" gradientUnits="userSpaceOnUse" x1="291.3539" y1="116.563" x2="297.2024" y2="111.3016">
					<stop  offset="0" style="stop-color:#415EAB"/>
					<stop  offset="0.55" style="stop-color:#46C0BA"/>
					<stop  offset="1" style="stop-color:#A1D5B2"/>
				</linearGradient>
				<path style="fill-rule:evenodd;clip-rule:evenodd;fill:url(#SVGID_00000173851433047732007160000001904677912821565080_);" d="
					M287,115.2c3.3,0.5,6.7,1.1,10,1.7C293.6,116.3,290.3,115.7,287,115.2z"/>
				
					<linearGradient id="SVGID_00000104705302770901556420000004519733259806534556_" gradientUnits="userSpaceOnUse" x1="257.6399" y1="112.8316" x2="264.0725" y2="107.0446">
					<stop  offset="0" style="stop-color:#415EAB"/>
					<stop  offset="0.55" style="stop-color:#46C0BA"/>
					<stop  offset="1" style="stop-color:#A1D5B2"/>
				</linearGradient>
				<path style="fill-rule:evenodd;clip-rule:evenodd;fill:url(#SVGID_00000104705302770901556420000004519733259806534556_);" d="
					M253.4,112c3.3,0.1,6.5,0.3,9.8,0.6C260,112.3,256.7,112.1,253.4,112z"/>
				
					<linearGradient id="SVGID_00000067206307820977879550000000288874798806081721_" gradientUnits="userSpaceOnUse" x1="303.2773" y1="118.7006" x2="308.1461" y2="114.3205">
					<stop  offset="0" style="stop-color:#415EAB"/>
					<stop  offset="0.55" style="stop-color:#46C0BA"/>
					<stop  offset="1" style="stop-color:#A1D5B2"/>
				</linearGradient>
				<path style="fill-rule:evenodd;clip-rule:evenodd;fill:url(#SVGID_00000067206307820977879550000000288874798806081721_);" d="
					M299.5,117.3c2.9,0.6,5.8,1.2,8.7,1.8C305.2,118.5,302.4,117.9,299.5,117.3z"/>
				
					<linearGradient id="SVGID_00000008857111273506392580000003222060616746480809_" gradientUnits="userSpaceOnUse" x1="325.2935" y1="124.0743" x2="329.5164" y2="120.2752">
					<stop  offset="0" style="stop-color:#415EAB"/>
					<stop  offset="0.55" style="stop-color:#46C0BA"/>
					<stop  offset="1" style="stop-color:#A1D5B2"/>
				</linearGradient>
				<path style="fill-rule:evenodd;clip-rule:evenodd;fill:url(#SVGID_00000008857111273506392580000003222060616746480809_);" d="
					M321.6,122.5c2.8,0.7,5.5,1.5,8.2,2.4C327.1,124,324.4,123.3,321.6,122.5z"/>
				
					<linearGradient id="SVGID_00000050635667870244926590000011006040562711701385_" gradientUnits="userSpaceOnUse" x1="313.8486" y1="121.1445" x2="319.0639" y2="116.4527">
					<stop  offset="0" style="stop-color:#415EAB"/>
					<stop  offset="0.55" style="stop-color:#46C0BA"/>
					<stop  offset="1" style="stop-color:#A1D5B2"/>
				</linearGradient>
				<path style="fill-rule:evenodd;clip-rule:evenodd;fill:url(#SVGID_00000050635667870244926590000011006040562711701385_);" d="
					M309.5,119.5c3.3,0.7,6.5,1.6,9.7,2.4C316,121,312.8,120.2,309.5,119.5z"/>
			</g>
			<g>
				<path class="st19" d="M240.2,172.8c-5,0-10.1,0.2-15,0.5c-20.2,16-33.6,41.9-33.4,82.4c-0.2,8.7,1.1,17,3.6,25.1
					c14.1-4.5,29.2-7,44.9-7c81.3,0,147.2,65.9,147.2,147.2c0,17.4-3.1,34.2-8.6,49.7c22.2,29.7,36.9,63.8,35.7,105.3
					c0,8.3-0.9,16.4-2.7,24.2c47.1-45.2,76.5-108.7,76.5-179.2C488.4,283.9,377.3,172.8,240.2,172.8z"/>
			</g>
		</g>
	</g>
	<path class="st20" d="M432.2,562.9c3.8,58.7-47.1,103.2-98.3,132c-56.1,31.6-233.8,13.6-265.1-18.1c39.3,1.3,173.2-44,172.9-101.7
		c-0.6-89-180.8-195.6-175.2-302.2C67.3,211.5,114.8,131,264,128.2c61.8,0,99.1,3.5,147,35c0.5,1.4-182.9-59.6-182.1,99.4
		C226.5,368.7,436.5,408.3,432.2,562.9z"/>
	
		<linearGradient id="SVGID_00000129901760256244122840000006157166550701219979_" gradientUnits="userSpaceOnUse" x1="151.7346" y1="760.3746" x2="286.6758" y2="170.551">
		<stop  offset="0" style="stop-color:#415EAB"/>
		<stop  offset="0.55" style="stop-color:#46C0BA"/>
		<stop  offset="1" style="stop-color:#A1D5B2"/>
	</linearGradient>
	<path style="fill-rule:evenodd;clip-rule:evenodd;fill:url(#SVGID_00000129901760256244122840000006157166550701219979_);" d="
		M414.6,575.9c0.2,92.9-116.3,153.5-174.3,154.3c-65.8,0.9-147-24.6-179-57.4c68.7-10,146.1-29.7,146.2-99.9
		c0.1-67.2-30.8-110-73.2-159.1C86.1,358.1,42.8,319.5,45.9,261c0.8-63.4,41.8-146.5,194.3-149.3c63.2,0,122,19,171,51.5
		c0.9,2.9-220.2-71.6-219.4,92.5C189.3,365.2,419,416.2,414.6,575.9z"/>
	<defs>
		<filter id="Adobe_OpacityMaskFilter" filterUnits="userSpaceOnUse" x="46" y="153.5" width="263.9" height="516.9">
			<feColorMatrix  type="matrix" values="1 0 0 0 0  0 1 0 0 0  0 0 1 0 0  0 0 0 1 0"/>
		</filter>
	</defs>
	
		<mask maskUnits="userSpaceOnUse" x="46" y="153.5" width="263.9" height="516.9" id="SVGID_00000136393642733681025360000010401705985023550621_">
		<g class="st22">
			
				<linearGradient id="SVGID_00000098187433691529122440000006327314705642150289_" gradientUnits="userSpaceOnUse" x1="-243.4205" y1="1342.4888" x2="-248.5735" y2="806.6678" gradientTransform="matrix(1 0 0 1 423.3229 -473.7991)">
				<stop  offset="0" style="stop-color:#FFFFFF"/>
				<stop  offset="1" style="stop-color:#000000"/>
			</linearGradient>
			
				<rect x="41.2" y="153.5" style="fill:url(#SVGID_00000098187433691529122440000006327314705642150289_);" width="268.7" height="516.9"/>
		</g>
	</mask>
	
		<path style="mask:url(#SVGID_00000136393642733681025360000010401705985023550621_);fill-rule:evenodd;clip-rule:evenodd;fill:#2A3781;" d="
		M95.3,153.5c-30.8,18.5-41.5,59.5-46.8,87.7c-15.4,82.6,43.8,120.7,88.8,175.4c78.8,95.9,133.3,228.6-63.8,253.8
		c341.5-42.6,245.3-170,129-274.3C144.6,344.3,45,237.7,95.3,153.5"/>
	<defs>
		
			<filter id="Adobe_OpacityMaskFilter_00000049201768594293075620000005164136616805479344_" filterUnits="userSpaceOnUse" x="61.2" y="111.8" width="353.6" height="617.7">
			<feColorMatrix  type="matrix" values="1 0 0 0 0  0 1 0 0 0  0 0 1 0 0  0 0 0 1 0"/>
		</filter>
	</defs>
	
		<mask maskUnits="userSpaceOnUse" x="61.2" y="111.8" width="353.6" height="617.7" id="SVGID_00000015347697394851355720000013330668824683033235_">
		<g style="filter:url(#Adobe_OpacityMaskFilter_00000049201768594293075620000005164136616805479344_);">
			
				<linearGradient id="SVGID_00000109028093804612329650000008854125139734280850_" gradientUnits="userSpaceOnUse" x1="16.5599" y1="826.6371" x2="-232.2727" y2="896.3494" gradientTransform="matrix(1 0 0 1 448.8735 -473.7991)">
				<stop  offset="0" style="stop-color:#FFFFFF"/>
				<stop  offset="1" style="stop-color:#000000"/>
			</linearGradient>
			
				<rect x="54.6" y="105.2" style="fill:url(#SVGID_00000109028093804612329650000008854125139734280850_);" width="384.2" height="617.8"/>
		</g>
	</mask>
	
		<path style="mask:url(#SVGID_00000015347697394851355720000013330668824683033235_);fill-rule:evenodd;clip-rule:evenodd;fill:#FFFFFF;" d="
		M220.6,323.5c-26.2-29.2-32-57.4-27.3-89.6c6.6-45.9,32.1-68.6,67.6-79.1c52.3-15.4,128.4,3.3,150.3,8.4
		c-36.7-24.1-114.4-65.7-226.4-46.5c-45.8,7.6-84,30-101.4,50.2C25,261.1,140.4,334.7,206.8,399.2C310.2,499.5,426,628.4,61.2,672.8
		c0,0,27.5,30.3,106.6,48.8c25.4,5.5,81.4,17.2,133-6c0,0,166.8-63.2,96.8-215.6C369.6,439,283.2,386.6,221,323.9"/>
</g>
</svg>
